<svg width="150" height="150" viewBox="0 0 150 150" fill="none" xmlns="http://www.w3.org/2000/svg">
	<rect width="150" height="150" fill="white" />
	<path d="M74.0909 47C74.0909 45.3431 72.7478 44 71.0909 44H47.9091C46.3025 44 45 45.3025 45 46.9091V70.0909C45 71.7478 46.3431 73.0909 48 73.0909H71.0909C72.7478 73.0909 74.0909 71.7478 74.0909 70.0909V47ZM64.3939 61.4545C63.3228 61.4545 62.4545 62.3228 62.4545 63.3939C62.4545 65.0005 61.1519 66.303 59.5455 66.303C57.9389 66.303 56.6364 65.0005 56.6364 63.3939C56.6364 62.3228 55.7681 61.4545 54.697 61.4545C53.0904 61.4545 51.7879 60.1521 51.7879 58.5455C51.7879 56.9389 53.0904 55.6364 54.697 55.6364C55.7681 55.6364 56.6364 54.7681 56.6364 53.697C56.6364 52.0904 57.9389 50.7879 59.5455 50.7879C61.1519 50.7879 62.4545 52.0904 62.4545 53.697C62.4545 54.7681 63.3228 55.6364 64.3939 55.6364C66.0003 55.6364 67.303 56.9389 67.303 58.5455C67.303 60.1521 66.0003 61.4545 64.3939 61.4545Z" fill="url(#paint0_linear_425_182)" />
	<path d="M45 105.091C45 106.698 46.3025 108 47.9091 108H71.0909C72.7478 108 74.0909 106.657 74.0909 105V81.9092C74.0909 80.2523 72.7478 78.9092 71.0909 78.9092H48C46.3431 78.9092 45 80.2523 45 81.9092V105.091ZM54.697 90.5455H64.3939C66.0003 90.5455 67.303 91.848 67.303 93.4546C67.303 95.0612 66.0003 96.3637 64.3939 96.3637H54.697C53.0904 96.3637 51.7879 95.0612 51.7879 93.4546C51.7879 91.848 53.0904 90.5455 54.697 90.5455Z" fill="url(#paint1_linear_425_182)" />
	<path d="M106.091 44H82.9091C81.2523 44 79.9091 45.3431 79.9091 47V105C79.9091 106.657 81.2523 108 82.9091 108H106.091C107.697 108 109 106.698 109 105.091V46.9091C109 45.3025 107.697 44 106.091 44ZM99.3031 84.7273H89.6061C87.9995 84.7273 86.697 83.4248 86.697 81.8182C86.697 80.2116 87.9995 78.9091 89.6061 78.9091H99.3031C100.909 78.9091 102.212 80.2116 102.212 81.8182C102.212 83.4248 100.909 84.7273 99.3031 84.7273ZM99.3031 73.0909H89.6061C87.9995 73.0909 86.697 71.7884 86.697 70.1818C86.697 68.5752 87.9995 67.2727 89.6061 67.2727H99.3031C100.909 67.2727 102.212 68.5752 102.212 70.1818C102.212 71.7884 100.909 73.0909 99.3031 73.0909Z" fill="url(#paint2_linear_425_182)" />
	<defs>
		<linearGradient id="paint0_linear_425_182" x1="46.5767" y1="73.0916" x2="46.6718" y2="33.0002" gradientUnits="userSpaceOnUse">
			<stop stop-color="#7528E8" />
			<stop offset="1" stop-color="#F693FF" />
		</linearGradient>
		<linearGradient id="paint1_linear_425_182" x1="46.5775" y1="82" x2="46.4945" y2="117" gradientUnits="userSpaceOnUse">
			<stop stop-color="#7528E8" />
			<stop offset="1" stop-color="#F693FF" />
		</linearGradient>
		<linearGradient id="paint2_linear_425_182" x1="81.4863" y1="108.002" x2="81.5531" y2="46.0001" gradientUnits="userSpaceOnUse">
			<stop stop-color="#7528E8" />
			<stop offset="1" stop-color="#F693FF" />
		</linearGradient>
	</defs>
</svg>