<svg width="150" height="150" viewBox="0 0 150 150" fill="none" xmlns="http://www.w3.org/2000/svg">
	<rect width="150" height="150" fill="white" />
	<circle cx="74.9772" cy="78.5001" r="9.5" transform="rotate(-60 74.9772 78.5001)" fill="url(#paint0_linear_401_402)" />
	<circle cx="74.9772" cy="78.5001" r="9.5" transform="rotate(-60 74.9772 78.5001)" fill="url(#paint1_linear_401_402)" />
	<circle cx="74.9772" cy="78.5001" r="9.5" transform="rotate(-60 74.9772 78.5001)" fill="url(#paint2_linear_401_402)" />
	<path d="M99.0469 60H54.375C53.3391 60 52.5 59.1609 52.5 58.125C52.5 57.0891 53.3391 56.25 54.375 56.25H99.375C100.411 56.25 101.25 55.4109 101.25 54.375C101.25 51.2684 98.7316 48.75 95.625 48.75H52.5C48.3574 48.75 45 52.1074 45 56.25V93.75C45 97.8926 48.3574 101.25 52.5 101.25H99.0469C102.33 101.25 105 98.727 105 95.625V65.625C105 62.523 102.33 60 99.0469 60ZM93.75 84.375C91.6793 84.375 90 82.6957 90 80.625C90 78.5543 91.6793 76.875 93.75 76.875C95.8207 76.875 97.5 78.5543 97.5 80.625C97.5 82.6957 95.8207 84.375 93.75 84.375Z" fill="url(#paint3_linear_401_402)" />
	<defs>
		<linearGradient id="paint0_linear_401_402" x1="74.9772" y1="69.0001" x2="74.9772" y2="88.0001" gradientUnits="userSpaceOnUse">
			<stop stop-color="#01E0E2" />
			<stop offset="1" stop-color="#3583F8" />
		</linearGradient>
		<linearGradient id="paint1_linear_401_402" x1="74.9772" y1="69.0001" x2="74.9772" y2="88.0001" gradientUnits="userSpaceOnUse">
			<stop stop-color="#01E0E2" />
			<stop offset="1" stop-color="#3583F8" />
		</linearGradient>
		<linearGradient id="paint2_linear_401_402" x1="74.9772" y1="69.0001" x2="74.9772" y2="88.0001" gradientUnits="userSpaceOnUse">
			<stop stop-color="#01E0E2" />
			<stop offset="1" stop-color="#3583F8" />
		</linearGradient>
		<linearGradient id="paint3_linear_401_402" x1="45" y1="72" x2="105" y2="72" gradientUnits="userSpaceOnUse">
			<stop stop-color="#7528E8" />
			<stop offset="1" stop-color="#F693FF" />
		</linearGradient>
	</defs>
</svg>