<svg width="16" height="16" viewBox="0 0 16 16" fill="none" xmlns="http://www.w3.org/2000/svg">
<path d="M5.41423 6.58579L6.80295 7.97447L6.80709 7.97033L7.77542 8.93867L7.77955 8.9428L9.19382 10.357C10.4956 11.6588 12.6061 11.6588 13.9078 10.357C15.2096 9.05527 15.2096 6.94473 13.9078 5.64298C12.6061 4.34123 10.4956 4.34123 9.19382 5.64298L8.71822 6.11857L9.66102 7.0614L10.1366 6.58579C10.9176 5.80474 12.184 5.80474 12.965 6.58579C13.7461 7.36687 13.7461 8.63313 12.965 9.4142C12.184 10.1953 10.9176 10.1953 10.1366 9.4142L8.75509 8.03273L8.75089 8.03693L6.35704 5.64298C5.05529 4.34123 2.94475 4.34123 1.643 5.64298C0.341249 6.94473 0.341249 9.05527 1.643 10.357C2.94475 11.6588 5.05529 11.6588 6.35704 10.357L6.83255 9.88147L5.88977 8.93867L5.41423 9.4142C4.63319 10.1953 3.36685 10.1953 2.58581 9.4142C1.80476 8.63313 1.80476 7.36687 2.58581 6.58579C3.36685 5.80474 4.63319 5.80474 5.41423 6.58579Z" fill="#252525"/>
</svg>
