<svg width="112" height="45" viewBox="0 0 112 45" fill="none" xmlns="http://www.w3.org/2000/svg">
<g clip-path="url(#clip0_519_2139)">
<path d="M22.351 29.6438C21.6774 31.9946 19.5036 33.7347 16.9317 33.7347C16.5336 33.7347 16.1356 33.7042 15.7682 33.6126H15.7376C15.5232 33.5516 15.3089 33.4905 15.0946 33.4294C14.4822 33.2157 13.8393 33.3684 13.38 33.8263L12.8901 34.3148L12.8595 34.3453L11.3898 35.8107C10.9306 36.2687 10.7775 36.9098 10.9918 37.5203C11.0224 37.6119 11.053 37.7341 11.0837 37.8256H10.8387C10.7775 37.8256 10.7469 37.8256 10.6856 37.8256C10.6244 37.8256 10.5938 37.8256 10.5325 37.8256C10.0427 37.8562 9.58339 38.0393 9.21598 38.3141C9.15474 38.3752 9.06289 38.4362 9.00165 38.4973C9.00165 38.4973 9.00165 38.4973 8.97103 38.5278C8.72609 38.772 8.54238 39.0773 8.45053 39.3826V39.3521C8.45053 38.8636 8.32806 38.4057 8.11373 38.0088C8.08312 37.9783 8.08312 37.9478 8.0525 37.9172C7.96064 37.7646 7.83817 37.6119 7.7157 37.4593C7.68508 37.4288 7.65447 37.3982 7.62385 37.3677C7.47076 37.0319 7.37891 36.6655 7.37891 36.2992C7.37891 36.1465 7.37891 36.0244 7.40952 35.9023C7.47076 35.6275 7.56261 35.3528 7.68508 35.1391L7.77694 35.0475L8.54238 34.2843L11.7879 31.0482L11.8797 30.9566L11.9716 30.865L12.5533 30.2849L12.6452 30.1933C12.982 29.9796 13.4106 29.8881 13.8393 29.8881C14.0536 29.8881 14.2679 29.9186 14.4822 29.9796C14.6353 30.0102 14.7884 30.0712 14.9415 30.1628C14.9721 30.1933 15.0027 30.2239 15.0334 30.2544C15.1558 30.3765 15.3089 30.4986 15.462 30.5902C15.4926 30.6208 15.5232 30.6208 15.5539 30.6513C15.9519 30.865 16.4112 30.9871 16.9011 30.9871C18.4626 30.9871 19.7179 29.7354 19.7179 28.1784V28.1479C19.871 28.5753 20.1465 28.9416 20.4833 29.2164C20.8508 29.5217 21.31 29.7049 21.8305 29.7049H22.351V29.6438Z" fill="url(#paint0_linear_519_2139)"/>
<path d="M18.4626 18.4091V23.2022C18.4319 23.6906 18.2482 24.1791 17.9421 24.5455C17.6665 24.8813 17.2991 25.156 16.8704 25.3087C16.8398 25.3087 16.8092 25.3087 16.7786 25.3087C16.5643 25.3087 16.3806 25.3392 16.1968 25.4003C16.1662 25.4003 16.1356 25.4308 16.105 25.4308C14.9721 25.7972 14.1455 26.8657 14.1455 28.1174C14.1455 28.9111 14.4822 29.6133 15.0028 30.1323C14.8497 30.0712 14.6966 30.0102 14.5435 29.9491C14.3292 29.8881 14.1148 29.8575 13.9005 29.8575C13.4719 29.8575 13.0738 29.9797 12.7064 30.1628L12.6146 30.2544L12.0328 30.8345C12.0328 30.8345 12.0328 30.8345 12.0328 30.8039C12.0328 30.8039 12.0328 30.7734 12.0022 30.7734C11.5736 29.9797 11.3286 29.0638 11.3286 28.0868C11.3286 26.1635 12.3084 24.4539 13.8087 23.4159C13.8087 23.4159 13.8393 23.4159 13.8393 23.3853C14.0536 23.2327 14.2679 23.1106 14.4822 23.019C15.064 22.7442 15.4314 22.1642 15.4314 21.5231V18.4091H18.4626Z" fill="url(#paint1_linear_519_2139)"/>
<path d="M45.1307 28.0258C45.1919 31.1398 42.62 33.7347 39.5276 33.7653C39.2827 33.7653 39.0377 33.7653 38.7928 33.7347H38.7622C38.4866 33.7042 38.2111 33.6431 37.9355 33.5821C37.3538 33.4294 36.7414 33.5821 36.3128 34.0095L35.731 34.5896L35.7004 34.6201L34.6594 35.6581L34.6288 35.6886L34.047 36.2687C33.6184 36.6961 33.4653 37.3066 33.6184 37.8867C33.6796 38.1615 33.7409 38.4362 33.7715 38.711V38.7415C33.8021 38.9858 33.8021 39.23 33.8021 39.4742C33.8021 42.5882 31.169 45.1221 28.0459 45.0611C25.5047 45 23.392 43.2904 22.7184 40.9701H22.9634C22.994 40.9701 23.0552 40.9701 23.0859 40.9701C23.1165 40.9701 23.1777 40.9701 23.2083 40.9701C23.7288 40.9396 24.1881 40.7564 24.5555 40.4511C24.8923 40.1764 25.1679 39.81 25.321 39.3826C25.321 39.4132 25.321 39.4132 25.321 39.4437C25.321 41.0312 26.6681 42.344 28.2909 42.2524C29.6993 42.1913 30.8322 41.0617 30.9546 39.6574C30.9853 39.1689 30.8934 38.711 30.7403 38.3141C30.7403 38.2836 30.7097 38.253 30.7097 38.2225C30.6178 38.0393 30.526 37.8867 30.4035 37.7035C30.3729 37.673 30.3729 37.6425 30.3423 37.6119C30.2198 37.3372 30.1586 37.0319 30.1586 36.7266C30.1586 36.6961 30.1586 36.6961 30.1586 36.6655C30.1586 36.1465 30.3729 35.6581 30.6791 35.2612L31.0465 34.8948L31.2302 34.7117L34.7206 31.2313L34.9043 31.0482L35.2718 30.6818C35.6698 30.3765 36.1597 30.1934 36.6802 30.1628C36.7108 30.1628 36.7108 30.1628 36.7414 30.1628C37.0476 30.1628 37.3538 30.2239 37.6293 30.346C37.6599 30.3765 37.6906 30.3765 37.7212 30.4071C37.8743 30.5292 38.058 30.6208 38.2417 30.7123C38.2723 30.7123 38.3029 30.7429 38.3335 30.7429C38.7316 30.926 39.1908 31.0176 39.6807 30.9566C41.0891 30.865 42.222 29.7049 42.2832 28.3005C42.3751 26.6825 41.0585 25.3392 39.4664 25.3392C39.4358 25.3392 39.4358 25.3392 39.4052 25.3392C39.8338 25.1866 40.2012 24.9118 40.4768 24.576C40.783 24.2096 40.9667 23.7517 40.9973 23.2327V22.7442C43.3549 23.3853 45.0695 25.4919 45.1307 28.0258Z" fill="url(#paint2_linear_519_2139)"/>
<path d="M16.9623 8.42607C16.5642 8.54819 16.2274 8.79242 15.9825 9.09771L15.9519 9.12824C15.9213 9.15877 15.9213 9.1893 15.8907 9.1893C15.5845 9.55565 15.4008 10.0136 15.4008 10.5021V11.021C15.3701 11.021 15.3701 11.0211 15.3395 10.9905H15.3089C15.1558 10.9295 14.9721 10.8989 14.819 10.8073C14.2067 10.5631 13.5025 10.6852 13.0126 11.1737L10.3794 13.7992L10.1957 13.9824L9.82832 14.3487C9.43029 14.654 8.94041 14.8372 8.4199 14.8677C8.38929 14.8677 8.38928 14.8677 8.35867 14.8677C8.05249 14.8677 7.74631 14.8067 7.47075 14.6846C7.44013 14.654 7.40951 14.654 7.3789 14.6235C7.22581 14.5014 7.0421 14.4098 6.85839 14.3182C6.82778 14.3182 6.79716 14.2877 6.76654 14.2877C6.36851 14.1045 5.93986 14.0434 5.51121 14.0434C4.07217 14.1045 2.90869 15.2646 2.81684 16.6995C2.72499 18.3175 4.04155 19.6608 5.63368 19.6608C5.6643 19.6608 5.6643 19.6608 5.69492 19.6608C4.89885 19.9356 4.31711 20.6072 4.13341 21.462C4.10279 21.5536 4.10279 21.6452 4.10279 21.7673V22.2863C1.74522 21.6147 0 19.4471 0 16.8827C0 13.7687 2.54128 11.2653 5.63368 11.2653C5.87862 11.2653 6.09295 11.2653 6.33789 11.2958H6.36851C6.98086 11.3874 7.53199 11.54 8.05249 11.7843L11.4817 8.36501L11.5429 8.30395L11.8185 8.02919L12.5533 7.29649L12.6145 7.23543C12.8901 7.11332 13.2269 7.02173 13.5331 7.02173C13.5637 7.02173 13.5637 7.02173 13.5943 7.02173C13.9311 7.02173 14.2679 7.08279 14.5741 7.23543C14.5741 7.26596 14.6047 7.26596 14.6047 7.29649C14.8496 7.63231 15.1864 7.90707 15.5539 8.12078C15.5845 8.12078 15.5845 8.15131 15.6151 8.15131C16.0131 8.33448 16.4418 8.4566 16.901 8.4566C16.9317 8.42607 16.9623 8.42607 16.9623 8.42607Z" fill="url(#paint3_linear_519_2139)"/>
<path d="M39.5276 8.42606C39.1908 8.54818 38.9153 8.73136 38.6703 8.94506C38.6703 8.94506 38.6397 8.94506 38.6397 8.97559C38.5785 9.03665 38.5172 9.12824 38.456 9.18929C38.1804 9.55564 37.9967 10.0136 37.9661 10.502V11.021C37.8742 10.9905 37.7518 10.96 37.6599 10.9295C37.0476 10.7158 36.4046 10.8684 35.9453 11.3263L35.4554 11.8148L35.4248 11.8453L34.445 12.8223L33.9552 13.3107C33.4959 13.7687 33.3428 14.4098 33.5571 15.0204C33.6184 15.2341 33.6796 15.4478 33.7408 15.6615V15.692C33.8327 16.0584 33.8633 16.4552 33.8633 16.8521C33.8633 18.7755 32.8835 20.4851 31.3833 21.5231C31.3833 21.5231 31.3526 21.5231 31.3526 21.5536C31.1383 21.7063 30.924 21.8284 30.7097 21.92C30.1279 22.1947 29.7605 22.7748 29.7605 23.4159V34.4674C29.7605 34.559 29.7299 34.6812 29.7299 34.7727C29.5768 35.597 28.9645 36.2992 28.1684 36.574C28.1378 36.574 28.1072 36.574 28.0765 36.574C27.8622 36.574 27.6785 36.6045 27.4948 36.6655C27.4642 36.6655 27.4336 36.6961 27.4029 36.6961C26.515 36.9708 25.8414 37.673 25.5659 38.5278C25.5659 38.5584 25.5353 38.5889 25.5353 38.6194C25.474 38.8026 25.4434 39.0163 25.4434 39.1995C25.4434 39.23 25.4434 39.2605 25.4434 39.2911C25.2903 39.7185 25.0148 40.0848 24.678 40.3596C24.3105 40.6649 23.8513 40.848 23.3308 40.8786H12.1859C11.5429 40.8786 10.9612 41.2449 10.6856 41.825C10.5631 42.0387 10.4407 42.2524 10.3182 42.4661C10.3182 42.4661 10.3182 42.4966 10.2876 42.4966C9.24657 44.0231 7.47074 45.0305 5.44996 44.9695C2.48004 44.8779 0.0612267 42.4661 -0.0306268 39.5048C-0.0918624 37.4898 0.918526 35.7191 2.44942 34.6812C2.44942 34.6812 2.48004 34.6812 2.48004 34.6506C2.69436 34.498 2.90868 34.3759 3.12301 34.2843C3.70475 34.0095 4.07216 33.4295 4.07216 32.7883V21.7673C4.07216 21.6757 4.10278 21.5536 4.10278 21.462C4.25587 20.6377 4.86823 19.9356 5.66429 19.6608C5.69491 19.6608 5.72552 19.6608 5.75614 19.6608C5.97047 19.6608 6.15417 19.6303 6.3685 19.5692C6.39912 19.5692 6.42974 19.5387 6.46035 19.5387C7.31765 19.2639 8.02186 18.5618 8.29742 17.7069C8.29742 17.6764 8.32804 17.6459 8.32804 17.6153C8.38928 17.4322 8.41989 17.2185 8.41989 17.0048C8.41989 16.9742 8.41989 16.9437 8.41989 16.9132C8.57298 16.4858 8.84854 16.1194 9.18534 15.8447C9.55275 15.5394 10.012 15.3562 10.5019 15.3562H21.5856C22.2285 15.3562 22.8103 14.9898 23.0858 14.4098C23.2083 14.1961 23.3308 13.9824 23.4532 13.7687C23.4532 13.7687 23.4532 13.7381 23.4839 13.7381C24.4943 12.2422 26.2089 11.2653 28.1684 11.2653C29.1482 11.2653 30.0667 11.5095 30.8628 11.9674H30.8934C30.6791 12.1201 30.4647 12.3338 30.3116 12.578L30.2198 12.6696C30.0055 13.0054 29.9136 13.4328 29.9136 13.8603C29.9136 14.074 29.9442 14.2877 30.0055 14.5014C30.0361 14.654 30.0973 14.8067 30.1892 14.9288C29.6687 14.4098 28.9645 14.1045 28.1684 14.1045C26.9131 14.1045 25.8414 14.9288 25.474 16.0584C25.474 16.0889 25.4434 16.1194 25.4434 16.1499C25.3822 16.3331 25.3516 16.5468 25.3516 16.73C25.3516 16.7605 25.3516 16.7911 25.3516 16.8216C25.1985 17.249 24.9229 17.6153 24.5861 17.8901C24.2187 18.1954 23.7594 18.3786 23.2389 18.4091H12.2165C11.5735 18.4091 10.9918 18.7755 10.7162 19.3555C10.5938 19.5692 10.4713 19.7829 10.3488 19.9966C10.3488 19.9966 10.3488 20.0272 10.3182 20.0272C9.92017 20.6072 9.39966 21.1262 8.78731 21.5536C8.78731 21.5536 8.75669 21.5536 8.75669 21.5841C8.54237 21.7368 8.32804 21.8589 8.11372 21.9505C7.53198 22.2253 7.16456 22.8053 7.16456 23.4464V34.498C7.16456 34.5896 7.13395 34.7117 7.13395 34.8033C6.98086 35.6276 6.3685 36.3297 5.57244 36.6045C5.54182 36.6045 5.5112 36.6045 5.48058 36.6045C5.26626 36.6045 5.08255 36.635 4.86823 36.6961C4.83761 36.6961 4.80699 36.7266 4.77637 36.7266C3.58228 37.093 2.7556 38.2225 2.81683 39.5353C2.87807 40.9702 4.04154 42.1303 5.48058 42.1913C6.79715 42.2524 7.93001 41.3976 8.29742 40.2375C8.29742 40.2069 8.32804 40.1764 8.32804 40.1459C8.38928 39.9627 8.41989 39.749 8.41989 39.5353C8.41989 39.5048 8.41989 39.4742 8.41989 39.4437C8.54237 39.1079 8.72607 38.8331 8.9404 38.5889C8.9404 38.5889 8.9404 38.5584 8.97101 38.5584C9.03225 38.4973 9.1241 38.4362 9.18534 38.3752C9.55275 38.0699 10.012 37.8867 10.5019 37.8867H21.5856C22.2285 37.8867 22.8103 37.5204 23.0858 36.9403C23.2083 36.7266 23.3308 36.5129 23.4532 36.2992C23.4532 36.2992 23.4532 36.2687 23.4839 36.2687C23.8819 35.6886 24.4024 35.1696 24.9841 34.7422C24.9841 34.7422 25.0148 34.7422 25.0148 34.7117C25.2291 34.559 25.4434 34.4369 25.6577 34.3453C26.2395 34.0706 26.6069 33.4905 26.6069 32.8494V21.7673C26.6069 21.6757 26.6375 21.5536 26.6375 21.462C26.7906 20.6377 27.4029 19.9356 28.199 19.6608C28.2296 19.6608 28.2602 19.6608 28.2909 19.6608C28.5052 19.6608 28.6889 19.6303 28.9032 19.5692C28.9338 19.5692 28.9645 19.5387 28.9951 19.5387C30.1279 19.1723 30.9546 18.1038 30.9546 16.8521C30.9546 16.3636 30.8321 15.9057 30.6178 15.5088C30.5872 15.4783 30.5872 15.4478 30.5566 15.4172C30.4647 15.2646 30.3423 15.112 30.2198 14.9593C30.1279 14.8067 30.0667 14.654 30.0055 14.4708C29.9442 14.2571 29.9136 14.0434 29.9136 13.7992C29.9136 13.3413 30.0667 12.8833 30.281 12.517L35.0574 7.75442L35.1493 7.66284C35.3942 7.51019 35.6391 7.4186 35.9147 7.38807C36.0372 7.35754 36.1903 7.35754 36.3127 7.35754C36.7108 7.35754 37.0782 7.44913 37.3844 7.60178C37.415 7.63231 37.4456 7.66284 37.4762 7.69336C37.5987 7.81548 37.7518 7.9376 37.9355 8.02919C37.9661 8.05971 37.9967 8.05971 38.0273 8.09024C38.4254 8.30395 38.8846 8.42606 39.3745 8.42606C39.497 8.42606 39.5276 8.42606 39.5276 8.42606Z" fill="url(#paint4_linear_519_2139)"/>
<path d="M30.924 11.9674C30.7097 12.1201 30.4953 12.3338 30.3423 12.578L30.924 11.9674C30.9546 11.9674 30.9546 11.9674 30.924 11.9674ZM29.9748 13.8297C29.9748 13.3718 30.1279 12.9138 30.3423 12.5475L30.2504 12.6391C30.0667 13.0054 29.9442 13.4023 29.9748 13.8297C29.9442 14.0434 29.9748 14.2571 30.0361 14.4708C30.0667 14.6235 30.1279 14.7761 30.2198 14.8982C30.2504 14.9288 30.281 14.9593 30.3116 14.9898C30.2198 14.8372 30.1585 14.6845 30.0973 14.5014C30.0055 14.2877 29.9748 14.074 29.9748 13.8297Z" fill="url(#paint5_linear_519_2139)"/>
<path d="M29.9748 13.8297C29.9748 14.0739 30.0055 14.2877 30.0667 14.5014L30.0361 14.4708C29.9748 14.2571 29.9442 14.0434 29.9748 13.8297C29.9442 13.4023 30.0667 13.0054 30.281 12.6391L30.3729 12.5475C30.1279 12.9138 29.9748 13.3718 29.9748 13.8297Z" fill="url(#paint6_linear_519_2139)"/>
<path d="M26.6681 26.5909V29.6438H21.8611C21.3712 29.6133 20.8814 29.4301 20.5139 29.1554C20.1771 28.8806 19.9016 28.5142 19.7485 28.0868C19.7485 28.0563 19.7485 28.0258 19.7485 27.9952C19.7485 27.7815 19.7179 27.5984 19.6566 27.3847C19.6566 27.3541 19.626 27.3236 19.626 27.2931C19.2586 26.1635 18.187 25.3392 16.9317 25.3392C16.901 25.3392 16.901 25.3392 16.8704 25.3392C17.2991 25.1866 17.6665 24.9118 17.942 24.576C18.2482 24.2096 18.4319 23.7517 18.4625 23.2327V22.7442C19.7485 23.1106 20.8507 23.9349 21.5856 25.0034C21.5856 25.0034 21.5856 25.0339 21.6162 25.0339C21.7693 25.2476 21.8917 25.4613 21.9836 25.675C22.2592 26.2551 22.8409 26.6214 23.4839 26.6214H26.6681V26.5909Z" fill="url(#paint7_linear_519_2139)"/>
<path d="M22.351 7.14384C21.9836 8.42607 21.1569 9.52512 20.0853 10.2578C20.0853 10.2578 20.0546 10.2578 20.0546 10.2883C19.8403 10.441 19.626 10.5631 19.4117 10.6547C18.8299 10.9295 18.4625 11.5095 18.4625 12.1506V15.3257H15.3701V10.5326C15.4007 10.0441 15.5844 9.58618 15.86 9.21983C15.8906 9.1893 15.8906 9.15877 15.9212 9.12824L15.9519 9.09771C16.2274 8.79242 16.5642 8.57871 16.9316 8.42607C16.9622 8.42607 16.9929 8.42607 17.0235 8.42607C17.2378 8.42607 17.4215 8.39554 17.6358 8.33448C17.6665 8.33448 17.6971 8.30395 17.7277 8.30395C18.8605 7.9376 19.6872 6.86908 19.6872 5.61738V5.58685C19.8403 6.01426 20.1159 6.38061 20.4527 6.65537C20.8201 6.96067 21.2794 7.14384 21.7999 7.14384H22.351Z" fill="url(#paint8_linear_519_2139)"/>
<path d="M45.1307 5.58684C45.1613 7.54071 44.1509 9.28087 42.6506 10.2883C42.6506 10.2883 42.62 10.2883 42.62 10.3189C42.4057 10.4715 42.1914 10.5936 41.977 10.6852C41.3953 10.96 41.0279 11.54 41.0279 12.1811V23.2022C40.9973 23.7212 40.8136 24.1791 40.5074 24.5455C40.2318 24.8813 39.8644 25.156 39.4358 25.3087C39.4051 25.3087 39.3745 25.3087 39.3439 25.3087C39.1296 25.3087 38.9459 25.3392 38.7622 25.4003C38.7315 25.4003 38.7009 25.4308 38.6703 25.4308C37.7824 25.7056 37.1088 26.4077 36.8332 27.2626C36.8332 27.2931 36.8026 27.3236 36.8026 27.3541C36.7414 27.5373 36.7108 27.751 36.7108 27.9647C36.7108 27.9953 36.7108 28.0258 36.7108 28.0563C36.5577 28.4837 36.2821 28.8501 35.9453 29.1248C35.5779 29.4301 35.1186 29.6133 34.5981 29.6438H29.7299V26.5909H32.9142C33.5571 26.5909 34.1389 26.2246 34.4144 25.6445C34.5369 25.4308 34.6594 25.2171 34.7818 25.0034C34.7818 25.0034 34.7818 24.9729 34.8125 24.9729C35.2105 24.3928 35.731 23.8738 36.3434 23.4769C36.3434 23.4769 36.374 23.4769 36.374 23.4464C36.5883 23.2938 36.8026 23.1716 37.0169 23.0801C37.5987 22.8053 37.9661 22.2252 37.9661 21.5841V10.5326C37.9967 10.0441 38.1804 9.58616 38.456 9.21981C38.5172 9.15876 38.5785 9.06717 38.6397 9.00611C38.6397 9.00611 38.6397 9.00611 38.6703 8.97558C38.9153 8.73135 39.2214 8.54817 39.5276 8.45658C39.5582 8.45658 39.5888 8.45658 39.6195 8.45658C39.8338 8.45658 40.0175 8.42605 40.2318 8.365C40.2624 8.365 40.2931 8.33447 40.3237 8.33447C41.5178 7.96812 42.3445 6.83854 42.2832 5.52578C42.222 4.09091 41.0585 2.9308 39.6195 2.86975C38.3029 2.80869 37.17 3.6635 36.8026 4.82361C36.8026 4.85414 36.772 4.88467 36.772 4.9152C36.7108 5.09838 36.6802 5.31208 36.6802 5.52578C36.6802 5.55631 36.6802 5.58684 36.6802 5.61737C36.5271 6.04478 36.2515 6.41113 35.9147 6.68589C35.5473 6.99118 35.088 7.17436 34.5675 7.20489H21.8611C21.3712 7.17436 20.8814 6.99118 20.5139 6.71642C20.1771 6.44166 19.9016 6.07531 19.7485 5.6479C19.7485 5.61737 19.7485 5.58684 19.7485 5.55631C19.7485 5.34261 19.7179 5.15943 19.6566 4.94573C19.6566 4.9152 19.626 4.88467 19.626 4.85414C19.2586 3.72456 18.187 2.90027 16.9317 2.90027C15.3701 2.90027 14.1148 4.15197 14.1148 5.70896C14.1148 6.28901 14.2985 6.86907 14.6047 7.29648C14.2985 7.17436 13.9923 7.08277 13.6249 7.08277C13.5943 7.08277 13.5943 7.08277 13.5637 7.08277C13.2269 7.08277 12.9207 7.17436 12.6452 7.29648H12.5533L11.8185 8.02918C11.8185 7.99865 11.7879 7.96812 11.7879 7.93759V7.90706C11.4817 7.20489 11.298 6.44166 11.298 5.61737C11.298 2.53393 13.8086 3.80882e-06 16.9317 3.80882e-06C18.8606 3.80882e-06 20.5752 0.976937 21.6162 2.47287C21.6162 2.47287 21.6162 2.5034 21.6468 2.5034C21.7999 2.7171 21.9224 2.9308 22.0142 3.14451C22.2898 3.72456 22.8715 4.09091 23.5145 4.09091H32.9448C33.5878 4.09091 34.1695 3.72456 34.4451 3.14451C34.5675 2.9308 34.69 2.7171 34.8125 2.5034C34.8125 2.5034 34.8125 2.47287 34.8431 2.47287C35.8535 0.976937 37.5987 -0.0305254 39.5582 3.80882e-06C42.5894 0.030533 45.1001 2.53393 45.1307 5.58684Z" fill="url(#paint9_linear_519_2139)"/>
<path d="M29.9748 13.8297C29.9748 13.3718 30.1279 12.9138 30.3423 12.5475L30.2504 12.6391C30.0667 13.0054 29.9442 13.4023 29.9748 13.8297C29.9442 14.0434 29.9748 14.2571 30.0361 14.4708C30.0667 14.6235 30.1279 14.7761 30.2198 14.8982C30.2504 14.9288 30.281 14.9593 30.3116 14.9898C30.2198 14.8372 30.1586 14.6845 30.0973 14.5014C30.0055 14.2877 29.9748 14.0739 29.9748 13.8297Z" fill="url(#paint10_linear_519_2139)"/>
<path d="M30.281 12.6391C30.0667 12.9749 29.9748 13.4023 29.9748 13.8297C29.9748 14.0434 30.0055 14.2571 30.0667 14.4708C30.0973 14.6235 30.1586 14.7761 30.2504 14.8982C29.7299 14.3792 29.0257 14.074 28.2296 14.074C27.5867 14.074 26.9743 14.2877 26.515 14.654L26.0251 11.6927C26.6987 11.3874 27.4642 11.2347 28.2296 11.2347C29.2094 11.2347 30.1279 11.479 30.924 11.9369H30.9546C30.9546 11.9369 30.9546 11.9369 30.9852 11.9369L30.281 12.6391Z" fill="url(#paint11_linear_519_2139)"/>
<path d="M39.5276 8.42607C39.1908 8.54818 38.9153 8.73136 38.6703 8.94506C38.6703 8.94506 38.6397 8.94506 38.6397 8.97559C38.5785 9.03665 38.5172 9.12824 38.456 9.18929C38.1804 9.55564 37.9967 10.0136 37.9661 10.502V11.021C37.8742 10.9905 37.7518 10.96 37.6599 10.9295C37.0476 10.7158 36.4046 10.8684 35.9453 11.3263L35.4554 11.8148L35.4248 11.8453L34.445 12.8223L33.9552 13.3107C33.4959 13.7687 33.3428 14.4098 33.5571 15.0204C33.6184 15.2341 33.6796 15.4478 33.7408 15.6615V15.692C33.8327 16.0584 33.8633 16.4552 33.8633 16.8521C33.8633 17.9817 33.5265 19.0502 32.9448 19.9356L28.0765 19.7524C28.1378 19.7219 28.199 19.6913 28.2909 19.6608C28.3215 19.6608 28.3521 19.6608 28.3827 19.6608C28.597 19.6608 28.7807 19.6303 28.9951 19.5692C29.0257 19.5692 29.0563 19.5387 29.0869 19.5387C30.2198 19.1723 31.0465 18.1038 31.0465 16.8521C31.0465 16.3637 30.924 15.9057 30.7097 15.5088C30.6791 15.4783 30.6791 15.4478 30.6484 15.4172C30.5566 15.2646 30.4341 15.112 30.3116 14.9593C30.281 14.9288 30.2504 14.8983 30.2198 14.8677C30.1586 14.7151 30.0973 14.593 30.0361 14.4403C29.9748 14.2266 29.9442 14.0434 29.9442 13.7992C29.9442 13.3718 30.0667 12.9749 30.2504 12.6086L35.1186 7.75442L35.2105 7.66284C35.4554 7.51019 35.7004 7.4186 35.9759 7.38807C36.0984 7.35754 36.2515 7.35754 36.374 7.35754C36.772 7.35754 37.1394 7.44913 37.4456 7.60178C37.4762 7.63231 37.5068 7.66284 37.5374 7.69337C37.6599 7.81548 37.813 7.9376 37.9967 8.02919C38.0273 8.05971 38.058 8.05971 38.0886 8.09024C38.4866 8.30395 38.9459 8.42607 39.4358 8.42607C39.497 8.42607 39.5276 8.42607 39.5276 8.42607Z" fill="url(#paint12_linear_519_2139)"/>
<path d="M58.9087 2.16757V7.41859H63.1646C67.2367 7.41859 69.2575 9.37246 69.2575 12.7001V19.5081H66.8081V12.7001C66.8081 10.8379 65.6752 9.73881 63.1646 9.73881H58.9087V19.4776H56.4899V2.16757H58.9087Z" fill="#252525"/>
<path d="M80.6167 7.41858C83.4948 7.41858 84.6889 8.79239 84.6889 11.1126C84.6889 13.3412 83.556 14.5929 80.5861 14.5929H74.8299V15.4478C74.8299 16.3942 75.3504 17.1269 76.6976 17.1269H84.1071V19.4776H76.6976C73.6664 19.4776 72.4724 17.7985 72.4724 15.5088V11.3874C72.4724 9.09768 73.6664 7.41858 76.6976 7.41858H80.6167ZM74.8299 12.7001H80.5248C81.8414 12.7001 82.3007 12.1506 82.3007 11.2653C82.3007 10.3494 81.7802 9.76933 80.5861 9.76933H76.6976C75.381 9.76933 74.8299 10.502 74.8299 11.4484V12.7001Z" fill="#252525"/>
<path d="M90.1082 2.16757V19.4776H87.6894V2.16757H90.1082Z" fill="#252525"/>
<path d="M96.0481 2.16757V19.4776H93.6293V2.16757H96.0481Z" fill="#252525"/>
<path d="M106.764 7.41858C109.979 7.41858 112.031 9.37245 112.031 13.4634C112.031 17.5237 109.979 19.5081 106.764 19.5081H104.223C100.978 19.5081 98.9568 17.5543 98.9568 13.4634C98.9568 9.40298 100.978 7.41858 104.223 7.41858H106.764ZM104.437 9.76933C102.325 9.76933 101.406 10.8684 101.406 13.4634C101.406 16.0583 102.325 17.1574 104.437 17.1574H106.519C108.601 17.1574 109.551 16.0889 109.551 13.4634C109.551 10.8684 108.601 9.76933 106.519 9.76933H104.437Z" fill="#252525"/>
<path d="M64.2974 25.8887C67.5123 25.8887 69.5331 27.8426 69.5331 31.9335C69.5331 35.9939 67.5123 37.9783 64.2974 37.9783H58.9393V42.8324H56.5205V31.0787C56.5205 27.5984 58.0514 25.9193 60.9601 25.9193H64.2974V25.8887ZM58.9087 35.597H64.0219C66.1345 35.597 67.053 34.5285 67.053 31.903C67.053 29.308 66.1345 28.209 64.0219 28.209H61.6337C59.6741 28.209 58.9087 29.0638 58.9087 31.1703V35.597Z" fill="#252525"/>
<path d="M80.678 25.8887V28.209H76.4221C75.3505 28.209 74.8606 28.6974 74.8606 29.7659V37.9478H72.4418V29.3996C72.4418 26.9878 73.3297 25.8887 75.7179 25.8887H80.678Z" fill="#252525"/>
<path d="M85.5156 21.3399V24.1486H83.0662V21.3399H85.5156ZM85.485 25.8888V37.9783H83.0662V25.8888H85.485Z" fill="#252525"/>
<path d="M95.6807 25.8887C99.7835 25.8887 101.774 27.8426 101.774 31.1703V37.9783H99.3242V31.1703C99.3242 29.2775 98.222 28.2089 95.6807 28.2089H91.7004C91.4861 28.2089 91.3942 28.3311 91.3942 28.5448V37.9478H88.9754V27.751C88.9754 26.3467 89.4653 25.8887 90.6594 25.8887H95.6807Z" fill="#252525"/>
<path d="M105.662 25.8888V23.019H108.112V25.8888H111.449V28.209H108.112V33.9179C108.112 35.2612 108.601 35.7192 109.734 35.7192H111.418V37.9478H109.244C106.734 37.9478 105.662 36.9403 105.662 33.7958V28.209H104.009V25.8888H105.662Z" fill="#252525"/>
</g>
<defs>
<linearGradient id="paint0_linear_519_2139" x1="3.78104" y1="44.4347" x2="42.7889" y2="4.14074" gradientUnits="userSpaceOnUse">
<stop stop-color="#BD36FF"/>
<stop offset="1" stop-color="#00E0E2"/>
</linearGradient>
<linearGradient id="paint1_linear_519_2139" x1="-0.466444" y1="40.3228" x2="38.5414" y2="0.0288478" gradientUnits="userSpaceOnUse">
<stop stop-color="#BD36FF"/>
<stop offset="1" stop-color="#00E0E2"/>
</linearGradient>
<linearGradient id="paint2_linear_519_2139" x1="14.9069" y1="55.2055" x2="53.9148" y2="14.9116" gradientUnits="userSpaceOnUse">
<stop stop-color="#BD36FF"/>
<stop offset="1" stop-color="#00E0E2"/>
</linearGradient>
<linearGradient id="paint3_linear_519_2139" x1="-10.0535" y1="31.0417" x2="28.9544" y2="-9.2522" gradientUnits="userSpaceOnUse">
<stop stop-color="#BD36FF"/>
<stop offset="1" stop-color="#00E0E2"/>
</linearGradient>
<linearGradient id="paint4_linear_519_2139" x1="2.37229" y1="43.0675" x2="41.3783" y2="2.77553" gradientUnits="userSpaceOnUse">
<stop stop-color="#BD36FF"/>
<stop offset="1" stop-color="#00E0E2"/>
</linearGradient>
<linearGradient id="paint5_linear_519_2139" x1="2.05892" y1="42.7677" x2="41.0668" y2="2.47361" gradientUnits="userSpaceOnUse">
<stop stop-color="#BD36FF"/>
<stop offset="1" stop-color="#00E0E2"/>
</linearGradient>
<linearGradient id="paint6_linear_519_2139" x1="1.89961" y1="42.6135" x2="40.9076" y2="2.31946" gradientUnits="userSpaceOnUse">
<stop stop-color="#BD36FF"/>
<stop offset="1" stop-color="#00E0E2"/>
</linearGradient>
<linearGradient id="paint7_linear_519_2139" x1="4.303" y1="44.94" x2="43.3109" y2="4.64606" gradientUnits="userSpaceOnUse">
<stop stop-color="#BD36FF"/>
<stop offset="1" stop-color="#00E0E2"/>
</linearGradient>
<linearGradient id="paint8_linear_519_2139" x1="-5.4492" y1="35.4991" x2="33.5587" y2="-4.79479" gradientUnits="userSpaceOnUse">
<stop stop-color="#BD36FF"/>
<stop offset="1" stop-color="#00E0E2"/>
</linearGradient>
<linearGradient id="paint9_linear_519_2139" x1="-0.106646" y1="40.6657" x2="38.8959" y2="0.377221" gradientUnits="userSpaceOnUse">
<stop stop-color="#BD36FF"/>
<stop offset="1" stop-color="#00E0E2"/>
</linearGradient>
<linearGradient id="paint10_linear_519_2139" x1="2.07342" y1="42.7819" x2="41.0813" y2="2.48761" gradientUnits="userSpaceOnUse">
<stop stop-color="#BD36FF"/>
<stop offset="1" stop-color="#00E0E2"/>
</linearGradient>
<linearGradient id="paint11_linear_519_2139" x1="0.694892" y1="41.4471" x2="39.7028" y2="1.15314" gradientUnits="userSpaceOnUse">
<stop stop-color="#BD36FF"/>
<stop offset="1" stop-color="#00E0E2"/>
</linearGradient>
<linearGradient id="paint12_linear_519_2139" x1="3.9983" y1="44.6451" x2="43.0062" y2="4.35111" gradientUnits="userSpaceOnUse">
<stop stop-color="#BD36FF"/>
<stop offset="1" stop-color="#00E0E2"/>
</linearGradient>
<clipPath id="clip0_519_2139">
<rect width="112" height="45" fill="white"/>
</clipPath>
</defs>
</svg>
