<svg width="20" height="20" viewBox="0 0 20 20" fill="none" xmlns="http://www.w3.org/2000/svg">
<path d="M16.0463 12.3711C15.3352 11.7846 14.6828 11.4994 14.052 11.4994C13.1394 11.4994 12.4823 12.0952 11.8874 12.7056C11.819 12.7758 11.7362 12.8086 11.6268 12.8086C11.1255 12.8086 10.2436 12.1643 9.00561 10.8937C7.54919 9.39884 6.99853 8.44811 7.3688 8.06796C8.37256 7.03816 8.68592 6.00582 7.1491 4.0443C6.59893 3.34155 6.06065 3 5.50352 3C4.75216 3 4.18099 3.61639 3.67707 4.16026C3.58995 4.25427 3.50765 4.34309 3.42696 4.4259C2.8574 5.01038 2.85769 6.28526 3.42779 7.83637C4.05328 9.53826 5.28829 11.3896 6.90537 13.0495C8.15593 14.3328 9.5166 15.3699 10.8404 16.0663C11.9961 16.6743 13.1172 17 13.997 17C13.9971 17 13.9972 17 13.9974 17C14.548 17 14.9952 16.8767 15.2906 16.626C15.8906 16.1169 17.0074 15.1739 17 14.0537C16.9959 13.453 16.6751 12.8899 16.0463 12.3711Z" fill="#3583F8"/>
</svg>
