<?xml version="1.0" standalone="no"?>
<!DOCTYPE svg PUBLIC "-//W3C//DTD SVG 20010904//EN"
 "http://www.w3.org/TR/2001/REC-SVG-20010904/DTD/svg10.dtd">
<svg version="1.0" xmlns="http://www.w3.org/2000/svg"
 width="192.000000pt" height="192.000000pt" viewBox="0 0 192.000000 192.000000"
 preserveAspectRatio="xMidYMid meet">
<metadata>
Created by potrace 1.14, written by Peter Selinger 2001-2017
</metadata>
<g transform="translate(0.000000,192.000000) scale(0.100000,-0.100000)"
fill="#000000" stroke="none">
<path d="M597 1874 c-97 -50 -153 -184 -117 -280 10 -26 7 -32 -68 -106 -74
-75 -80 -78 -106 -68 -99 37 -234 -22 -282 -124 -55 -117 -7 -260 104 -310
l39 -18 1 -229 c2 -260 13 -221 -90 -310 -62 -54 -83 -107 -75 -195 6 -81 39
-134 109 -177 71 -44 150 -48 224 -12 36 18 66 42 85 69 60 83 32 76 293 76
l234 0 6 -23 c9 -36 76 -108 120 -128 54 -25 148 -24 201 0 95 44 137 122 134
245 l-3 83 64 64 63 64 74 -3 c98 -3 146 11 198 59 72 66 96 158 65 249 -20
59 -64 109 -120 136 l-38 19 0 205 c0 261 1 265 49 295 78 50 120 118 122 199
5 182 -179 301 -341 220 -33 -16 -62 -41 -79 -66 -58 -84 -37 -78 -283 -78
-249 0 -214 -10 -297 88 -69 82 -188 105 -286 56z m151 -105 c37 -13 72 -64
72 -105 -1 -88 -109 -145 -180 -94 -88 63 -46 197 66 209 6 0 25 -4 42 -10z
m951 -3 c36 -19 60 -56 62 -98 7 -94 -96 -149 -180 -97 -67 41 -93 32 -195
-70 l-92 -92 -53 14 c-92 24 -200 -11 -248 -78 -60 -86 -58 -85 -143 -85 l-78
0 1 81 c2 76 4 82 30 102 61 48 97 84 115 117 l19 35 264 1 c302 1 309 3 331
78 25 89 97 128 167 92z m-1075 -322 c13 -5 16 -23 16 -95 l0 -89 -110 0
c-144 0 -167 -11 -185 -93 -7 -36 -45 -74 -80 -83 -43 -11 -103 13 -125 49
-63 103 46 218 154 162 62 -33 89 -22 183 70 85 83 106 95 147 79z m952 -7 c9
-9 8 -438 -1 -466 -3 -12 -20 -28 -37 -37 -33 -17 -98 -80 -98 -95 0 -5 -10
-17 -22 -29 -18 -16 -35 -20 -99 -20 l-77 0 2 81 c1 74 3 82 26 100 132 102
157 155 135 296 l-7 52 53 57 c63 66 101 85 125 61z m-346 -142 c34 -17 60
-62 60 -100 0 -57 -55 -115 -109 -115 -10 0 -31 -14 -45 -31 -25 -29 -26 -36
-26 -145 l0 -114 -80 0 -79 0 -41 55 c-26 35 -60 66 -90 83 l-50 27 1 88 1 87
113 0 c107 0 115 1 144 26 17 14 31 35 31 46 0 31 31 76 64 92 40 20 70 20
106 1z m-589 -182 c0 -10 1 -45 1 -77 1 -63 -6 -74 -86 -129 -66 -46 -101
-171 -72 -255 l14 -37 -94 -96 c-52 -53 -95 -105 -95 -115 -2 -36 3 -56 22
-88 48 -79 -7 -176 -101 -176 -129 0 -149 189 -24 222 28 8 56 24 70 41 24 28
24 29 24 284 l0 255 31 27 c40 33 97 90 130 130 26 30 30 31 103 31 65 0 76
-2 77 -17z m118 -287 c39 -21 61 -58 61 -107 0 -33 -6 -47 -34 -75 -28 -28
-41 -34 -78 -34 -53 0 -83 20 -104 68 -42 102 58 198 155 148z m941 -1 c42
-21 60 -53 60 -103 0 -37 -6 -50 -34 -78 -39 -39 -85 -45 -142 -18 -61 29 -90
16 -192 -86 -51 -51 -102 -104 -112 -118 -24 -30 -25 -72 -4 -114 62 -119 -95
-230 -187 -132 -36 38 -33 113 6 154 15 16 42 32 59 36 45 10 73 31 81 62 4
15 8 73 7 130 l0 102 110 0 c130 0 163 13 178 71 25 90 98 131 170 94z m-590
-232 c0 -94 -4 -104 -61 -141 -28 -19 -62 -52 -77 -78 -15 -24 -35 -47 -45
-50 -14 -4 -372 -8 -449 -5 -14 1 -18 10 -18 34 0 28 10 44 64 95 56 54 67 60
92 54 59 -14 157 -7 200 16 46 24 92 73 106 114 10 28 11 28 99 28 l89 0 0
-67z"/>
</g>
</svg>
