<svg width="150" height="150" viewBox="0 0 150 150" fill="none" xmlns="http://www.w3.org/2000/svg">
	<rect width="150" height="150" fill="white" />
	<path d="M89.9713 94.6625C89.2169 93.5243 88.6886 92.198 88.7884 90.8361C88.8349 90.2003 88.8583 89.5626 88.8583 88.9253C88.8583 88.2881 88.8349 87.6505 88.7884 87.0147C88.6886 85.6528 89.2169 84.3264 89.9714 83.1881C90.492 82.4028 90.8821 81.5275 91.1214 80.5899C91.672 78.4315 91.3619 76.1806 90.2479 74.2511L89.2581 72.5368C87.7469 69.9196 84.9289 68.2936 81.9039 68.2936C81.73 68.2936 81.5562 68.2991 81.3828 68.3099C80.0186 68.3951 78.6053 68.1857 77.4761 67.4154C76.4211 66.6957 75.3174 66.0575 74.169 65.5031C72.9374 64.9085 72.05 63.7874 71.4395 62.5636C71.02 61.7225 70.4579 60.9492 69.7671 60.2748C68.1734 58.7191 66.0689 57.8623 63.8413 57.8623H61.8618C59.6342 57.8623 57.5297 58.7191 55.9361 60.2747C55.2452 60.949 54.683 61.7224 54.2634 62.5635C53.6529 63.7872 52.7656 64.9082 51.5341 65.5027C50.3857 66.0573 49.282 66.6955 48.2268 67.4153C47.0977 68.1855 45.6844 68.3949 44.3201 68.3097C44.1467 68.2989 43.9728 68.2935 43.7988 68.2935C40.7739 68.2935 37.9559 69.9194 36.4447 72.5367L35.4554 74.2508C34.3414 76.1801 34.0312 78.4312 34.5818 80.5896C34.821 81.5272 35.211 82.4026 35.7315 83.1879C36.486 84.3262 37.0143 85.6526 36.9146 87.0146C36.868 87.6503 36.8446 88.2879 36.8446 88.9252C36.8446 89.5624 36.868 90.1999 36.9146 90.8356C37.0143 92.1977 36.4859 93.5241 35.7314 94.6625C35.2109 95.4477 34.8209 96.323 34.5816 97.2606C34.031 99.4192 34.3412 101.67 35.455 103.599L36.4449 105.313C37.9559 107.931 40.7739 109.557 43.799 109.557C43.9728 109.557 44.1465 109.551 44.3198 109.54C45.6842 109.456 47.0978 109.665 48.2272 110.435C49.2822 111.155 50.3858 111.793 51.5341 112.347C52.7656 112.942 53.6529 114.063 54.2634 115.287C54.683 116.128 55.245 116.901 55.9359 117.576C57.5296 119.131 59.634 119.988 61.8615 119.988H63.8411C66.0687 119.988 68.1732 119.131 69.7667 117.576C70.4577 116.901 71.0197 116.128 71.4393 115.287C72.0497 114.063 72.937 112.942 74.1685 112.347C75.3171 111.793 76.4209 111.155 77.4761 110.435C78.6051 109.665 80.0181 109.455 81.3821 109.54C81.5556 109.551 81.7296 109.557 81.9036 109.557C81.9038 109.557 81.9036 109.557 81.9038 109.557C84.9285 109.557 87.7466 107.931 89.2578 105.313L90.2473 103.599C91.3614 101.67 91.6715 99.4188 91.1209 97.2606C90.8818 96.3231 90.4918 95.4478 89.9713 94.6625ZM84.1823 84.3739C84.4985 85.8645 84.659 87.3958 84.659 88.9253C84.659 90.4549 84.4985 91.9862 84.1823 93.4768C83.9975 94.3467 84.381 95.2383 85.1392 95.7029C87.1353 96.9258 87.7817 99.4722 86.6111 101.5L85.6214 103.214C84.858 104.537 83.4338 105.358 81.9041 105.358C81.1951 105.358 80.4891 105.178 79.8625 104.837C79.0799 104.411 78.1142 104.525 77.4528 105.122C75.156 107.194 72.5066 108.726 69.5779 109.674C68.7312 109.949 68.1494 110.727 68.126 111.617C68.0644 113.956 66.1825 115.789 63.8415 115.789H61.8618C59.5208 115.789 57.6389 113.956 57.5773 111.617C57.5538 110.727 56.9721 109.949 56.1254 109.674C53.1967 108.726 50.5473 107.194 48.2503 105.122C47.8553 104.766 47.3519 104.581 46.8436 104.581C46.5009 104.581 46.1561 104.665 45.841 104.837C45.2052 105.183 44.5182 105.358 43.7993 105.358C42.2697 105.358 40.8453 104.537 40.0819 103.214L39.092 101.5C37.9215 99.4724 38.568 96.926 40.5641 95.7029C41.3223 95.2383 41.7056 94.3465 41.521 93.4768C41.2047 91.9862 41.0443 90.4549 41.0443 88.9253C41.0443 87.3962 41.2047 85.8646 41.521 84.3741C41.7056 83.5043 41.3223 82.6126 40.5643 82.148C38.5681 80.9248 37.9216 78.3784 39.0924 76.3506L40.0819 74.6365C40.8455 73.3142 42.2698 72.4928 43.7997 72.4928C44.5085 72.4928 45.2146 72.6731 45.8415 73.014C46.6239 73.4397 47.5897 73.3253 48.251 72.7287C50.548 70.6566 53.1975 69.1251 56.126 68.1762C56.9728 67.9021 57.5544 67.1237 57.5779 66.2342C57.6396 63.8944 59.5217 62.0617 61.8626 62.0617H63.8421C66.1831 62.0617 68.065 63.8945 68.1267 66.2342C68.15 67.1237 68.7319 67.9021 69.5786 68.1762C72.5075 69.1247 75.1567 70.6564 77.4536 72.7287C78.1151 73.3251 79.0809 73.4395 79.8633 73.014C80.4991 72.6682 81.1859 72.4928 81.9048 72.4928C83.4343 72.4928 84.8588 73.3144 85.6224 74.6366L86.6123 76.3507C87.7828 78.3784 87.1363 80.9248 85.1402 82.148C84.3808 82.6124 83.9975 83.5042 84.1823 84.3739Z" fill="url(#paint0_linear_416_771)" />
	<path d="M115.323 55.3721C114.814 54.4834 114.408 53.4911 114.461 52.4683C114.475 52.1958 114.483 51.9228 114.483 51.65C114.483 51.3773 114.475 51.1044 114.461 50.8318C114.408 49.809 114.814 48.8166 115.323 47.9279C115.55 47.5316 115.725 47.1024 115.84 46.6488C116.171 45.3537 115.985 44.0032 115.316 42.8455L114.722 41.8169C113.816 40.2466 112.125 39.271 110.31 39.271V39.271C109.295 39.271 108.243 39.1253 107.393 38.5704C106.931 38.269 106.455 37.993 105.964 37.743C105.05 37.2774 104.392 36.4293 103.875 35.5433C103.645 35.1501 103.362 34.7856 103.028 34.4597C102.072 33.5263 100.809 33.0122 99.4724 33.0122H98.2846C96.9481 33.0122 95.6854 33.5263 94.7292 34.4596C94.3953 34.7855 94.1115 35.15 93.8822 35.5432C93.3654 36.4292 92.7069 37.2773 91.793 37.7428C91.3023 37.9928 90.8257 38.2688 90.364 38.5702C89.514 39.1252 88.4619 39.2709 87.4469 39.2709V39.2709C85.6319 39.2709 83.9411 40.2465 83.0344 41.8168L82.4408 42.8453C81.7724 44.0029 81.5863 45.3535 81.9166 46.6486C82.0323 47.1022 82.2069 47.5315 82.4339 47.9278C82.943 48.8165 83.3492 49.8089 83.2957 50.8317C83.2815 51.1043 83.2743 51.3772 83.2743 51.6499C83.2743 51.9227 83.2815 52.1955 83.2957 52.468C83.3492 53.4909 82.9429 54.4833 82.4338 55.3721C82.2068 55.7684 82.0323 56.1976 81.9165 56.6512C81.5862 57.9463 81.7723 59.2969 82.4406 60.4545L83.0345 61.4829C83.9411 63.0533 85.6319 64.0288 87.447 64.0288V64.0288C88.462 64.0288 89.5141 64.1746 90.3639 64.7295C90.8256 65.031 91.3023 65.3069 91.793 65.5569C92.7069 66.0225 93.3654 66.8706 93.8821 67.7565C94.1114 68.1497 94.3952 68.5142 94.7291 68.8401C95.6853 69.7736 96.948 70.2874 98.2844 70.2874H99.4723C100.809 70.2874 102.071 69.7735 103.028 68.8401C103.362 68.5142 103.645 68.1497 103.875 67.7565C104.391 66.8706 105.05 66.0225 105.964 65.5569C106.454 65.3069 106.931 65.0309 107.393 64.7295C108.243 64.1746 109.295 64.0288 110.31 64.0288V64.0288C110.31 64.0288 110.31 64.0288 110.31 64.0288C112.125 64.0288 113.815 63.0533 114.722 61.4829L115.316 60.4545C115.984 59.2969 116.17 57.9461 115.84 56.6512C115.724 56.1976 115.55 55.7684 115.323 55.3721ZM111.677 48.9192C111.867 49.8135 111.963 50.7323 111.963 51.65C111.963 52.5677 111.867 53.4866 111.677 54.3809C111.566 54.9028 111.796 55.4378 112.251 55.7165C113.449 56.4503 113.837 57.9782 113.134 59.1951L112.54 60.2235C112.082 61.0168 111.228 61.5095 110.31 61.5095C109.885 61.5095 109.461 61.4015 109.085 61.1968C108.616 60.9414 108.036 61.0101 107.639 61.3681C106.261 62.6114 104.672 63.5302 102.914 64.0995C102.406 64.2641 102.057 64.731 102.043 65.2647C102.006 66.6686 100.877 67.7683 99.4725 67.7683H98.2846C96.8801 67.7683 95.7509 66.6686 95.7139 65.2647C95.6998 64.7309 95.3508 64.264 94.8428 64.0995C93.0856 63.5305 91.4959 62.6114 90.1178 61.3681C89.8807 61.1544 89.5787 61.0437 89.2737 61.0437C89.0681 61.0437 88.8612 61.0939 88.6722 61.1969C88.2907 61.4044 87.8785 61.5097 87.4472 61.5097C86.5294 61.5097 85.6747 61.0168 85.2167 60.2234L84.6228 59.1949C83.9204 57.9783 84.3083 56.4504 85.506 55.7165C85.961 55.4378 86.1909 54.9027 86.0802 54.3809C85.8904 53.4866 85.7942 52.5677 85.7942 51.65C85.7942 50.7325 85.8904 49.8136 86.0802 48.9193C86.1909 48.3974 85.961 47.8624 85.5061 47.5836C84.3084 46.8497 83.9205 45.3219 84.623 44.1052L85.2167 43.0767C85.6748 42.2833 86.5295 41.7905 87.4474 41.7905C87.8727 41.7905 88.2964 41.8987 88.6725 42.1033C89.1419 42.3586 89.7214 42.29 90.1182 41.932C91.4963 40.6888 93.0861 39.7699 94.8432 39.2006C95.3512 39.0361 95.7002 38.5691 95.7143 38.0353C95.7513 36.6315 96.8806 35.5318 98.2852 35.5318H99.4729C100.877 35.5318 102.007 36.6316 102.044 38.0353C102.058 38.5691 102.407 39.0361 102.915 39.2006C104.672 39.7697 106.262 40.6887 107.64 41.932C108.037 42.2899 108.616 42.3585 109.086 42.1033C109.467 41.8957 109.879 41.7905 110.31 41.7905C111.228 41.7905 112.083 42.2834 112.541 43.0768L113.135 44.1053C113.837 45.3219 113.449 46.8497 112.252 47.5836C111.796 47.8623 111.566 48.3973 111.677 48.9192Z" fill="url(#paint1_linear_416_771)" />
	<circle cx="63" cy="89" r="12" fill="url(#paint2_linear_416_771)" />
	<circle cx="99" cy="52" r="6" fill="url(#paint3_linear_416_771)" />
	<defs>
		<linearGradient id="paint0_linear_416_771" x1="44.6382" y1="119.988" x2="23.2391" y2="69.4401" gradientUnits="userSpaceOnUse">
			<stop offset="0.0240226" stop-color="#01E0E2" />
			<stop offset="1" stop-color="#3583F8" />
		</linearGradient>
		<linearGradient id="paint1_linear_416_771" x1="83.6131" y1="70.2878" x2="116" y2="70.3584" gradientUnits="userSpaceOnUse">
			<stop stop-color="#7528E8" />
			<stop offset="1" stop-color="#F693FF" />
		</linearGradient>
		<linearGradient id="paint2_linear_416_771" x1="55.3409" y1="101" x2="47.562" y2="80.9982" gradientUnits="userSpaceOnUse">
			<stop offset="0.0240226" stop-color="#01E0E2" />
			<stop offset="1" stop-color="#3583F8" />
		</linearGradient>
		<linearGradient id="paint3_linear_416_771" x1="93.6505" y1="58.0001" x2="105" y2="58.027" gradientUnits="userSpaceOnUse">
			<stop stop-color="#7528E8" />
			<stop offset="1" stop-color="#F693FF" />
		</linearGradient>
	</defs>
</svg>