<svg width="150" height="150" viewBox="0 0 150 150" fill="none" xmlns="http://www.w3.org/2000/svg">
	<rect width="150" height="150" fill="white" />
	<path d="M110.125 61.543C109.575 59.0789 105.554 58.6333 103.029 58.6333C102.155 58.6333 101.557 59.5212 101.836 60.3501C102.801 63.2262 103.326 66.3028 103.326 69.4999C103.326 85.3944 90.3948 98.3257 74.5001 98.3257C58.6054 98.3257 45.6741 85.3946 45.6741 69.5001C45.6741 53.6056 58.6054 40.6743 74.5001 40.6743C79.5698 40.6743 84.4223 41.9901 88.7014 44.423C88.7046 44.4248 88.7087 44.4242 88.7113 44.4216C88.7139 44.419 88.7179 44.4185 88.7212 44.4203C89.1733 44.677 89.6187 44.9461 90.0569 45.2275C91.1046 45.9002 91.1993 47.3601 90.3188 48.2405L87.1548 51.4046C86.5866 51.9728 86.4167 52.8273 86.724 53.5698C87.0315 54.3123 87.756 54.7963 88.5596 54.7963H103.029C104.127 54.7963 105.016 53.9068 105.016 52.8095V38.3396C105.016 37.536 104.532 36.8115 103.79 36.504C103.047 36.1965 102.193 36.3666 101.625 36.9348C99.2498 39.3095 95.4917 39.4453 92.5746 37.7813C87.0054 34.6043 80.7621 33 74.5001 33C54.3739 33.0002 38 49.3739 38 69.5001C38 89.6262 54.3739 106 74.5001 106C94.6262 106 111 89.6261 111 69.5001C111 66.7679 110.698 64.1051 110.125 61.543Z" fill="url(#paint0_linear_24_545)" />
	<g filter="url(#filter0_bii_24_545)">
		<path fill-rule="evenodd" clip-rule="evenodd" d="M64.804 116H85.445C88.0929 116 90.5367 114.676 91.9791 112.457C93.4249 110.237 93.6493 107.466 92.5791 105.045L86.7103 91.7604C86.2164 90.6406 86.2164 89.3572 86.7103 88.2373L92.5791 74.9526C93.6481 72.5302 93.4249 69.7605 91.9791 67.5434C90.5356 65.324 88.0929 64 85.4439 64H64.804C62.1595 64 59.7156 65.324 58.2699 67.5434C56.8241 69.7605 56.6008 72.5313 57.6699 74.9526L63.5375 88.2385C64.0315 89.3583 64.0315 90.6417 63.5375 91.7615L57.6688 105.047C56.5986 107.47 56.823 110.238 58.2688 112.457C59.7145 114.675 62.1572 116 64.804 116Z" fill="#E8D8FF" fill-opacity="0.63" />
	</g>
	<defs>
		<filter id="filter0_bii_24_545" x="52" y="59" width="46.2479" height="62" filterUnits="userSpaceOnUse" color-interpolation-filters="sRGB">
			<feFlood flood-opacity="0" result="BackgroundImageFix" />
			<feGaussianBlur in="BackgroundImage" stdDeviation="2.5" />
			<feComposite in2="SourceAlpha" operator="in" result="effect1_backgroundBlur_24_545" />
			<feBlend mode="normal" in="SourceGraphic" in2="effect1_backgroundBlur_24_545" result="shape" />
			<feColorMatrix in="SourceAlpha" type="matrix" values="0 0 0 0 0 0 0 0 0 0 0 0 0 0 0 0 0 0 127 0" result="hardAlpha" />
			<feOffset dy="5" />
			<feGaussianBlur stdDeviation="10" />
			<feComposite in2="hardAlpha" operator="arithmetic" k2="-1" k3="1" />
			<feColorMatrix type="matrix" values="0 0 0 0 1 0 0 0 0 1 0 0 0 0 1 0 0 0 1 0" />
			<feBlend mode="normal" in2="shape" result="effect2_innerShadow_24_545" />
			<feColorMatrix in="SourceAlpha" type="matrix" values="0 0 0 0 0 0 0 0 0 0 0 0 0 0 0 0 0 0 127 0" result="hardAlpha" />
			<feOffset dy="-5" />
			<feGaussianBlur stdDeviation="6" />
			<feComposite in2="hardAlpha" operator="arithmetic" k2="-1" k3="1" />
			<feColorMatrix type="matrix" values="0 0 0 0 0.458823 0 0 0 0 0.156863 0 0 0 0 0.909804 0 0 0 0.14 0" />
			<feBlend mode="normal" in2="effect2_innerShadow_24_545" result="effect3_innerShadow_24_545" />
		</filter>
		<linearGradient id="paint0_linear_24_545" x1="79.5" y1="106" x2="67.5" y2="27" gradientUnits="userSpaceOnUse">
			<stop stop-color="#7528E8" />
			<stop offset="1" stop-color="#F693FF" />
		</linearGradient>
	</defs>
</svg>