<svg width="150" height="150" viewBox="0 0 150 150" fill="none" xmlns="http://www.w3.org/2000/svg">
	<rect width="150" height="150" fill="white" />
	<path d="M113.223 72.8319L105.613 64.9668L107.147 54.1295C107.356 52.6556 106.358 51.2821 104.891 51.0249L94.1116 49.1349L88.9824 39.4665C88.2848 38.1512 86.6692 37.6276 85.3329 38.2807L75.4997 43.088L65.6673 38.2811C64.3295 37.6273 62.7154 38.1519 62.0174 39.4669L56.8882 49.1353L46.1087 51.0253C44.6425 51.2821 43.6443 52.656 43.8529 54.1299L45.3861 64.9671L37.7762 72.8319C36.7413 73.9015 36.7413 75.5995 37.7762 76.6694L45.3857 84.5349L43.8525 95.3726C43.6443 96.8461 44.6421 98.2196 46.1079 98.4771L56.8878 100.368L62.0174 110.036C62.715 111.351 64.3295 111.875 65.6669 111.221L75.4994 106.416L85.3329 111.221C85.7226 111.412 86.1354 111.502 86.5427 111.502C87.5328 111.502 88.4875 110.967 88.982 110.036L94.1116 100.368L104.892 98.4771C106.357 98.22 107.356 96.8461 107.147 95.3726L105.613 84.5349L113.224 76.6694C114.259 75.5995 114.259 73.9019 113.223 72.8319ZM100.709 81.6673C100.118 82.2788 99.8414 83.1298 99.9606 83.9727L101.309 93.5028L91.8298 95.1658C90.9916 95.313 90.2679 95.8387 89.8691 96.5904L85.3583 105.091L76.7113 100.865C76.329 100.678 75.9144 100.585 75.4994 100.585C75.0847 100.585 74.67 100.678 74.2878 100.865L65.6415 105.091L61.1307 96.5904C60.7319 95.8387 60.0082 95.313 59.17 95.1658L49.6908 93.5028L51.0389 83.9727C51.1581 83.1302 50.8818 82.2792 50.2898 81.6677L43.5987 74.751L50.2898 67.8351C50.8814 67.2236 51.1581 66.3726 51.0389 65.5301L49.6908 56.0004L59.1697 54.3385C60.0082 54.1917 60.7319 53.6655 61.1311 52.9139L65.6415 44.4118L74.2874 48.6389C75.052 49.0131 75.946 49.0131 76.7113 48.6389L85.3579 44.4118L89.8687 52.9139C90.2675 53.6655 90.9913 54.1917 91.8298 54.3385L101.309 56.0004L99.9602 65.5301C99.841 66.373 100.117 67.2236 100.709 67.8355L107.4 74.751L100.709 81.6673Z" fill="url(#paint0_linear_408_662)" />
	<path d="M66.7354 72.6683C70.4198 72.6683 73.4169 69.6711 73.4169 65.9875C73.4169 62.3023 70.4198 59.3044 66.7354 59.3044C63.0506 59.3044 60.0531 62.3023 60.0531 65.9875C60.0531 69.6715 63.051 72.6683 66.7354 72.6683ZM66.7354 63.7196C67.9852 63.7196 69.0018 64.7369 69.0018 65.9875C69.0018 67.2369 67.9849 68.2531 66.7354 68.2531C65.4852 68.2531 64.4682 67.2366 64.4682 65.9875C64.4682 64.7369 65.4852 63.7196 66.7354 63.7196Z" fill="url(#paint1_linear_408_662)" />
	<path d="M88.8286 61.4226C87.967 60.5605 86.5685 60.5601 85.7071 61.4226L62.1716 84.9577C61.3096 85.8198 61.3096 87.2175 62.1716 88.0796C62.6028 88.5108 63.1676 88.726 63.7327 88.726C64.2975 88.726 64.8626 88.5104 65.2938 88.0796L88.829 64.5444C89.6907 63.6824 89.6907 62.2846 88.8286 61.4226Z" fill="url(#paint2_linear_408_662)" />
	<path d="M84.2637 76.834C80.5796 76.834 77.5829 79.8311 77.5829 83.5148C77.5829 87.1999 80.58 90.1978 84.2637 90.1978C87.9488 90.1978 90.9467 87.1999 90.9467 83.5148C90.9467 79.8311 87.9488 76.834 84.2637 76.834ZM84.2637 85.7831C83.0146 85.7831 81.998 84.7657 81.998 83.5152C81.998 82.266 83.0146 81.2495 84.2637 81.2495C85.5139 81.2495 86.5316 82.266 86.5316 83.5152C86.5316 84.7654 85.5143 85.7831 84.2637 85.7831Z" fill="url(#paint3_linear_408_662)" />
	<defs>
		<linearGradient id="paint0_linear_408_662" x1="41.1738" y1="111.503" x2="113.999" y2="111.684" gradientUnits="userSpaceOnUse">
			<stop stop-color="#7528E8" />
			<stop offset="1" stop-color="#F693FF" />
		</linearGradient>
		<linearGradient id="paint1_linear_408_662" x1="70.5" y1="56.5" x2="63" y2="70" gradientUnits="userSpaceOnUse">
			<stop stop-color="#01E0E2" />
			<stop offset="1" stop-color="#3583F8" />
		</linearGradient>
		<linearGradient id="paint2_linear_408_662" x1="89.1567" y1="65.8887" x2="75.1593" y2="65.8887" gradientUnits="userSpaceOnUse">
			<stop stop-color="#01E0E2" />
			<stop offset="1" stop-color="#3583F8" />
		</linearGradient>
		<linearGradient id="paint3_linear_408_662" x1="94.5" y1="88" x2="80" y2="80" gradientUnits="userSpaceOnUse">
			<stop offset="0.0240226" stop-color="#01E0E2" />
			<stop offset="1" stop-color="#3583F8" />
		</linearGradient>
	</defs>
</svg>