<svg width="150" height="150" viewBox="0 0 150 150" fill="none" xmlns="http://www.w3.org/2000/svg">
	<rect width="150" height="150" fill="white" />
	<circle cx="74.8668" cy="99.3594" r="15.4031" transform="rotate(105 74.8668 99.3594)" fill="url(#paint0_linear_401_302)" />
	<path d="M105.6 92.2178C103.722 92.2178 102.2 90.6956 102.2 88.8179V70.6844C102.2 58.0193 93.544 47.3763 81.8251 44.3481C80.3827 43.9754 79.5333 41.5741 79.5333 40.0843C79.5333 37.5846 77.4997 35.551 75 35.551C72.5004 35.551 70.4667 37.5846 70.4667 40.0843C70.4667 41.5743 69.6176 43.9753 68.175 44.3481C56.4561 47.3763 47.8 58.0193 47.8 70.6844V88.8178C47.8 90.6956 46.2777 92.2178 44.3999 92.2178C42.5222 92.2178 40.9999 93.7401 40.9999 95.6178C40.9999 97.4956 42.5222 99.0179 44.3999 99.0179H105.6C107.478 99.0179 109 97.4956 109 95.6178C109 93.7401 107.478 92.2178 105.6 92.2178Z" fill="url(#paint1_linear_401_302)" />
	<defs>
		<linearGradient id="paint0_linear_401_302" x1="74.8668" y1="83.9564" x2="74.8668" y2="114.763" gradientUnits="userSpaceOnUse">
			<stop stop-color="#01E0E2" />
			<stop offset="1" stop-color="#3583F8" />
		</linearGradient>
		<linearGradient id="paint1_linear_401_302" x1="52.5" y1="99" x2="95" y2="85" gradientUnits="userSpaceOnUse">
			<stop stop-color="#7528E8" />
			<stop offset="1" stop-color="#F693FF" />
		</linearGradient>
	</defs>
</svg>