<svg width="150" height="150" viewBox="0 0 150 150" fill="none" xmlns="http://www.w3.org/2000/svg">
	<rect width="150" height="150" fill="white" />
	<circle cx="107" cy="91" r="17" fill="#7528E8" />
	<circle cx="49.5" cy="67.5" r="23.5" fill="#01E0E2" />
	<g filter="url(#filter0_bii_24_837)">
		<path d="M113.181 55.6374C113.156 53.7857 111.731 52.256 109.888 52.0868C94.5668 50.6538 82.0636 42.4659 77.9416 39.471C77.0801 38.843 75.9127 38.843 75.0513 39.471C70.9373 42.4659 58.4341 50.6538 43.1132 52.0868C41.2695 52.256 39.8525 53.7857 39.8203 55.6374C39.6351 67.7219 41.5754 108.749 75.5746 117.879C76.1784 118.04 76.8145 118.04 77.4183 117.879C111.417 108.758 113.358 67.7218 113.181 55.6374Z" fill="#EADCFF" fill-opacity="0.63" />
	</g>
	<defs>
		<filter id="filter0_bii_24_837" x="29.81" y="29" width="93.3801" height="99.0001" filterUnits="userSpaceOnUse" color-interpolation-filters="sRGB">
			<feFlood flood-opacity="0" result="BackgroundImageFix" />
			<feGaussianBlur in="BackgroundImage" stdDeviation="5" />
			<feComposite in2="SourceAlpha" operator="in" result="effect1_backgroundBlur_24_837" />
			<feBlend mode="normal" in="SourceGraphic" in2="effect1_backgroundBlur_24_837" result="shape" />
			<feColorMatrix in="SourceAlpha" type="matrix" values="0 0 0 0 0 0 0 0 0 0 0 0 0 0 0 0 0 0 127 0" result="hardAlpha" />
			<feOffset dy="8" />
			<feGaussianBlur stdDeviation="7.5" />
			<feComposite in2="hardAlpha" operator="arithmetic" k2="-1" k3="1" />
			<feColorMatrix type="matrix" values="0 0 0 0 0.7975 0 0 0 0 0.9982 0 0 0 0 1 0 0 0 1 0" />
			<feBlend mode="normal" in2="shape" result="effect2_innerShadow_24_837" />
			<feColorMatrix in="SourceAlpha" type="matrix" values="0 0 0 0 0 0 0 0 0 0 0 0 0 0 0 0 0 0 127 0" result="hardAlpha" />
			<feOffset dy="-5" />
			<feGaussianBlur stdDeviation="6" />
			<feComposite in2="hardAlpha" operator="arithmetic" k2="-1" k3="1" />
			<feColorMatrix type="matrix" values="0 0 0 0 0.458823 0 0 0 0 0.156863 0 0 0 0 0.909804 0 0 0 0.14 0" />
			<feBlend mode="normal" in2="effect2_innerShadow_24_837" result="effect3_innerShadow_24_837" />
		</filter>
	</defs>
</svg>