<svg width="20" height="20" viewBox="0 0 20 20" fill="none" xmlns="http://www.w3.org/2000/svg">
<path d="M6.04402 15.4117L6.64735 15.7642C7.6648 16.3576 8.82201 16.6692 9.99985 16.6667C11.3184 16.6667 12.6073 16.2758 13.7037 15.5432C14.8 14.8107 15.6545 13.7695 16.159 12.5513C16.6636 11.3331 16.7957 9.99269 16.5384 8.69948C16.2812 7.40627 15.6462 6.21839 14.7139 5.28604C13.7815 4.35369 12.5937 3.71875 11.3005 3.46151C10.0072 3.20428 8.6668 3.3363 7.44863 3.84088C6.23045 4.34547 5.18926 5.19995 4.45672 6.29628C3.72418 7.39261 3.33318 8.68154 3.33318 10.0001C3.33318 11.1967 3.64735 12.3442 4.23652 13.3534L4.58818 13.9567L4.04402 15.9576L6.04402 15.4117ZM1.66985 18.3334L2.79652 14.1934C2.05413 12.9208 1.6641 11.4734 1.66652 10.0001C1.66652 5.39758 5.39735 1.66675 9.99985 1.66675C14.6023 1.66675 18.3332 5.39758 18.3332 10.0001C18.3332 14.6026 14.6023 18.3334 9.99985 18.3334C8.52716 18.3358 7.0804 17.9461 5.80818 17.2042L1.66985 18.3334ZM6.99235 6.09008C7.10402 6.08175 7.21652 6.08175 7.32818 6.08675C7.37318 6.09008 7.41818 6.09508 7.46318 6.10008C7.59568 6.11508 7.74152 6.19591 7.79068 6.30758C8.03902 6.87091 8.28068 7.43841 8.51402 8.00758C8.56568 8.13425 8.53485 8.29675 8.43652 8.45508C8.36889 8.56215 8.29573 8.66562 8.21735 8.76508C8.12318 8.88591 7.92068 9.10758 7.92068 9.10758C7.92068 9.10758 7.83818 9.20591 7.86985 9.32841C7.88152 9.37508 7.91985 9.44258 7.95485 9.49925L8.00402 9.57841C8.21735 9.93425 8.50402 10.2951 8.85402 10.6351C8.95402 10.7317 9.05152 10.8309 9.15652 10.9234C9.54652 11.2676 9.98818 11.5484 10.4648 11.7567L10.469 11.7584C10.5398 11.7892 10.5757 11.8059 10.679 11.8501C10.7307 11.8717 10.784 11.8909 10.8382 11.9051C10.8942 11.9193 10.9531 11.9167 11.0076 11.8974C11.062 11.8781 11.1095 11.8431 11.144 11.7967C11.7473 11.0659 11.8023 11.0184 11.8073 11.0184V11.0201C11.8493 10.981 11.8991 10.9513 11.9534 10.9331C12.0077 10.9148 12.0653 10.9084 12.1223 10.9142C12.1723 10.9176 12.2232 10.9267 12.2698 10.9476C12.7123 11.1501 13.4365 11.4659 13.4365 11.4659L13.9215 11.6834C14.0032 11.7226 14.0773 11.8151 14.0799 11.9042C14.0832 11.9601 14.0882 12.0501 14.069 12.2151C14.0423 12.4309 13.9773 12.6901 13.9123 12.8259C13.8678 12.9186 13.8088 13.0036 13.7374 13.0776C13.6533 13.1659 13.5612 13.2462 13.4623 13.3176C13.4282 13.3433 13.3934 13.3683 13.3582 13.3926C13.2545 13.4583 13.148 13.5195 13.039 13.5759C12.8245 13.6899 12.5875 13.7553 12.3448 13.7676C12.1907 13.7759 12.0365 13.7876 11.8815 13.7792C11.8749 13.7792 11.4082 13.7067 11.4082 13.7067C10.2234 13.3951 9.12767 12.8113 8.20818 12.0017C8.01985 11.8359 7.84568 11.6576 7.66735 11.4801C6.92568 10.7426 6.36568 9.94675 6.02568 9.19508C5.85166 8.82616 5.75765 8.42458 5.74985 8.01675C5.74641 7.51079 5.9118 7.01814 6.21985 6.61675C6.28068 6.53841 6.33818 6.45675 6.43735 6.36258C6.54318 6.26258 6.60985 6.20925 6.68235 6.17258C6.77874 6.12427 6.8839 6.09593 6.99152 6.08925L6.99235 6.09008Z" fill="#3583F8"/>
</svg>
