<svg width="20" height="20" viewBox="0 0 20 20" fill="none" xmlns="http://www.w3.org/2000/svg">
<path fill-rule="evenodd" clip-rule="evenodd" d="M10 3.9992C9.07997 3.9997 8.17237 4.21176 7.34738 4.619C6.52239 5.02624 5.80209 5.61776 5.24219 6.34781C4.68229 7.07786 4.29778 7.92689 4.11838 8.82926C3.93898 9.73164 3.96951 10.6632 4.20759 11.5519C4.44568 12.4406 4.88495 13.2626 5.49144 13.9544C6.09793 14.6463 6.8554 15.1894 7.70529 15.5417C8.55517 15.8941 9.47471 16.0463 10.3928 15.9865C11.3109 15.9268 12.2029 15.6567 13 15.1972L14 16.9282C12.4749 17.8087 10.7019 18.1614 8.9559 17.9316C7.20992 17.7017 5.58857 16.9022 4.3433 15.657C3.09802 14.4118 2.29842 12.7905 2.06849 11.0445C1.83856 9.29854 2.19116 7.52549 3.07161 6.00034C3.95205 4.4752 5.31114 3.28318 6.93808 2.60916C8.56503 1.93514 10.3689 1.81678 12.07 2.27244C13.771 2.7281 15.2742 3.73232 16.3464 5.12936C17.4186 6.52639 17.9998 8.23816 18 9.9992V11.0002C17.9999 11.6145 17.8113 12.2139 17.4595 12.7176C17.1078 13.2212 16.61 13.6047 16.0333 13.8163C15.4566 14.0278 14.8288 14.0573 14.2348 13.9006C13.6409 13.7439 13.1093 13.4087 12.712 12.9402C12.0369 13.5629 11.168 13.9343 10.2514 13.992C9.33473 14.0498 8.42614 13.7903 7.67824 13.2572C6.93034 12.724 6.38868 11.9498 6.14425 11.0644C5.89983 10.1791 5.96753 9.23662 6.33598 8.39531C6.70443 7.55399 7.35119 6.8651 8.16761 6.44435C8.98403 6.02361 9.92037 5.89664 10.8194 6.08477C11.7183 6.27291 12.5252 6.76469 13.1044 7.4775C13.6836 8.19032 13.9998 9.08074 14 9.9992V10.9992C14 11.2644 14.1054 11.5188 14.2929 11.7063C14.4804 11.8938 14.7348 11.9992 15 11.9992C15.2652 11.9992 15.5196 11.8938 15.7071 11.7063C15.8946 11.5188 16 11.2644 16 10.9992V9.9992C16 8.4079 15.3679 6.88178 14.2426 5.75656C13.1174 4.63134 11.5913 3.9992 10 3.9992ZM12 9.9992C12 9.46877 11.7893 8.96006 11.4142 8.58499C11.0391 8.20991 10.5304 7.9992 10 7.9992C9.46957 7.9992 8.96087 8.20991 8.58579 8.58499C8.21072 8.96006 8.00001 9.46877 8.00001 9.9992C8.00001 10.5296 8.21072 11.0383 8.58579 11.4134C8.96087 11.7885 9.46957 11.9992 10 11.9992C10.5304 11.9992 11.0391 11.7885 11.4142 11.4134C11.7893 11.0383 12 10.5296 12 9.9992Z" fill="#3583F8"/>
</svg>
