<svg width="20" height="20" viewBox="0 0 20 20" fill="none" xmlns="http://www.w3.org/2000/svg">
<path d="M2.28261 9.71295L5.96933 11.0958L7.39632 15.7078C7.48763 16.0032 7.84704 16.1124 8.0856 15.9164L10.1406 14.2327C10.3561 14.0563 10.6629 14.0475 10.888 14.2118L14.5946 16.9162C14.8498 17.1026 15.2113 16.9621 15.2753 16.6522L17.9906 3.52631C18.0604 3.18778 17.7295 2.90537 17.4087 3.03004L2.27829 8.89594C1.9049 9.04066 1.90815 9.57193 2.28261 9.71295ZM7.16635 10.3597L14.3716 5.89988C14.5011 5.81996 14.6343 5.99593 14.5231 6.09959L8.5767 11.6546C8.36768 11.8501 8.23286 12.1118 8.19467 12.3958L7.99211 13.9044C7.96528 14.1058 7.68373 14.1258 7.62843 13.9309L6.84939 11.1799C6.76016 10.8661 6.89019 10.531 7.16635 10.3597Z" fill="#3583F8"/>
</svg>
