<svg width="20" height="20" viewBox="0 0 20 20" fill="none" xmlns="http://www.w3.org/2000/svg">
<path d="M6.46984 16.0209C6.9615 15.8042 7.5115 15.7634 8.0265 15.9051C8.66817 16.0801 9.33067 16.1684 9.99984 16.1667C13.8207 16.1667 16.6665 13.4276 16.6665 9.75008C16.6665 6.07258 13.8207 3.33341 9.99984 3.33341C6.179 3.33341 3.33317 6.07258 3.33317 9.75008C3.33317 11.6417 4.07984 13.3101 5.38817 14.4801C5.62588 14.6906 5.81812 14.9475 5.9531 15.2349C6.08808 15.5224 6.16296 15.8344 6.17317 16.1517L6.46984 16.0209ZM9.99984 1.66675C14.6948 1.66675 18.3332 5.10591 18.3332 9.75008C18.3332 14.3942 14.6948 17.8334 9.99984 17.8334C9.18495 17.8355 8.3735 17.7279 7.58734 17.5134C7.43967 17.4728 7.28254 17.4843 7.14234 17.5459L5.489 18.2759C5.38911 18.3201 5.2799 18.339 5.17098 18.331C5.06206 18.3231 4.95676 18.2885 4.86434 18.2303C4.77191 18.1721 4.6952 18.0921 4.64095 17.9973C4.58669 17.9026 4.55655 17.7959 4.55317 17.6868L4.50734 16.2034C4.50433 16.1132 4.48298 16.0246 4.44458 15.9429C4.40619 15.8612 4.35155 15.7883 4.284 15.7284C2.66234 14.2792 1.6665 12.1809 1.6665 9.75008C1.6665 5.10591 5.30567 1.66675 9.99984 1.66675ZM4.99567 12.1142L7.44317 8.23092C7.53526 8.08471 7.65666 7.95918 7.7997 7.86226C7.94275 7.76534 8.10433 7.69913 8.27426 7.66781C8.44419 7.63648 8.61876 7.64073 8.78696 7.68028C8.95516 7.71983 9.11334 7.79382 9.2515 7.89758L11.1982 9.35592C11.2849 9.42142 11.3907 9.45686 11.4994 9.45686C11.6081 9.45686 11.7139 9.42142 11.8007 9.35592L14.4298 7.35925C14.7807 7.09342 15.239 7.51341 15.004 7.88675L12.5565 11.7701C12.4644 11.9163 12.343 12.0418 12.2 12.1387C12.0569 12.2357 11.8953 12.3019 11.7254 12.3332C11.5555 12.3645 11.3809 12.3603 11.2127 12.3207C11.0445 12.2812 10.8863 12.2072 10.7482 12.1034L8.8015 10.6451C8.71473 10.5796 8.60897 10.5441 8.50025 10.5441C8.39153 10.5441 8.28578 10.5796 8.199 10.6451L5.56984 12.6409C5.219 12.9067 4.76067 12.4867 4.99567 12.1134V12.1142Z" fill="#3583F8"/>
</svg>
