<svg width="10" height="10" viewBox="0 0 10 10" fill="none" xmlns="http://www.w3.org/2000/svg">
<g clip-path="url(#clip0_597_1030)">
<path d="M9.9777 3.83906C9.92421 3.67446 9.78194 3.5545 9.6107 3.52964L6.70649 3.10769L5.40766 0.475805C5.33107 0.320626 5.17301 0.222366 4.99998 0.222366C4.82692 0.222366 4.66886 0.320626 4.5923 0.475805L3.29356 3.10766L0.389263 3.52961C0.218021 3.5545 0.0757234 3.67446 0.0222594 3.83903C-0.0312045 4.00364 0.0133791 4.18431 0.13731 4.30508L2.23886 6.35338L1.74256 9.2462C1.71331 9.41677 1.78342 9.58913 1.92341 9.69085C2.00261 9.7484 2.09641 9.77768 2.19067 9.77768C2.26302 9.77768 2.33567 9.76044 2.40219 9.72546L4.99995 8.3598L7.59768 9.72546C7.6646 9.76065 7.73789 9.77741 7.81047 9.77768C8.06128 9.77732 8.26446 9.57392 8.26446 9.32306C8.26446 9.28814 8.26052 9.25411 8.25307 9.22146L7.76107 6.35341L9.86262 4.30508C9.98658 4.18431 10.0312 4.00364 9.9777 3.83906Z" fill="white"/>
</g>
<defs>
<clipPath id="clip0_597_1030">
<rect width="10" height="10" fill="white"/>
</clipPath>
</defs>
</svg>
