<svg width="51" height="51" viewBox="0 0 51 51" fill="none" xmlns="http://www.w3.org/2000/svg">
<path d="M19.6563 40.9062V39.8437H11.6875C10.42 39.842 9.20485 39.3378 8.30855 38.4415C7.41226 37.5452 6.90798 36.33 6.9063 35.0625V34.2507C6.90213 33.2398 7.18173 32.248 7.71328 31.3881C8.24484 30.5283 9.00703 29.8348 9.91317 29.3866C10.3185 29.1841 10.6651 28.8811 10.92 28.5065C11.1748 28.1318 11.3294 27.6981 11.3688 27.2467L12.3165 16.813C12.4954 14.8442 13.1131 12.9406 14.1243 11.2419C15.1354 9.54323 16.5143 8.09269 18.1597 6.99688C19.805 5.90107 21.675 5.18784 23.6322 4.90959C25.5893 4.63135 27.584 4.79516 29.4695 5.38899C28.8868 6.2951 28.4327 7.27773 28.1202 8.30874C27.2653 8.08215 26.3845 7.96786 25.5 7.96874C22.9903 7.95697 20.568 8.89055 18.7154 10.5837C16.8628 12.2769 15.7155 14.6055 15.5019 17.1062L14.5563 27.5357C14.4684 28.5286 14.1269 29.4823 13.5647 30.3053C13.0025 31.1284 12.2383 31.7932 11.3454 32.2362C10.969 32.4216 10.6521 32.7088 10.4308 33.0653C10.2096 33.4218 10.0928 33.8333 10.0938 34.2529V35.0646C10.0949 35.4868 10.2633 35.8913 10.562 36.1896C10.8607 36.4879 11.2654 36.6557 11.6875 36.6562H39.3125C39.7351 36.6557 40.1401 36.4876 40.4389 36.1888C40.7376 35.8901 40.9057 35.485 40.9063 35.0625V34.2507C40.908 33.8321 40.7922 33.4214 40.572 33.0652C40.3519 32.7091 40.0363 32.4219 39.661 32.2362C38.767 31.7941 38.0015 31.1296 37.4381 30.3064C36.8747 29.4833 36.5323 28.5292 36.4438 27.5357L36.0188 22.9032C37.0721 23.212 38.1639 23.3701 39.2615 23.3729L39.6143 27.2446C39.6572 27.6947 39.8134 28.1266 40.0683 28.5001C40.3232 28.8735 40.6685 29.1763 41.072 29.3802C41.9789 29.8287 42.7419 30.5223 43.2745 31.3825C43.8072 32.2426 44.088 33.2348 44.0853 34.2465V35.0582C44.0842 36.326 43.5801 37.5414 42.6837 38.4378C41.7872 39.3343 40.5718 39.8384 39.304 39.8395H31.3438V40.9062C31.3438 42.4561 30.7281 43.9425 29.6322 45.0384C28.5363 46.1343 27.0499 46.75 25.5 46.75C23.9502 46.75 22.4638 46.1343 21.3679 45.0384C20.272 43.9425 19.6563 42.4561 19.6563 40.9062ZM22.8438 40.9062C22.8438 41.6107 23.1236 42.2863 23.6218 42.7845C24.1199 43.2826 24.7956 43.5625 25.5 43.5625C26.2045 43.5625 26.8802 43.2826 27.3783 42.7845C27.8764 42.2863 28.1563 41.6107 28.1563 40.9062V39.8437H22.8438V40.9062ZM38.8812 19.1122C37.7233 19.0454 36.5973 18.7077 35.5938 18.1262L35.5003 17.1062C35.2733 14.476 34.0143 12.0426 31.9983 10.3381C32.201 9.25049 32.6439 8.22179 33.2945 7.32699C34.8145 8.43445 36.0807 9.85348 37.0086 11.4893C37.9364 13.1251 38.5046 14.9401 38.675 16.813L38.8875 19.1101L38.8812 19.1122Z" fill="white"/>
<path d="M39.3125 19.125C37.8415 19.125 36.4035 18.6888 35.1804 17.8716C33.9574 17.0543 33.0041 15.8927 32.4411 14.5337C31.8782 13.1747 31.7309 11.6793 32.0179 10.2365C32.3049 8.79379 33.0132 7.46855 34.0534 6.4284C35.0935 5.38824 36.4188 4.67989 37.8615 4.39291C39.3042 4.10594 40.7997 4.25322 42.1587 4.81615C43.5177 5.37908 44.6793 6.33236 45.4966 7.55545C46.3138 8.77854 46.75 10.2165 46.75 11.6875C46.75 13.6601 45.9664 15.5518 44.5716 16.9466C43.1768 18.3414 41.285 19.125 39.3125 19.125Z" fill="#01E0E2"/>
</svg>
